<?xml version="1.0" encoding="UTF-8"?><svg id="Calque_2" xmlns="http://www.w3.org/2000/svg" xmlns:xlink="http://www.w3.org/1999/xlink" viewBox="0 0 300.49 198.72"><defs><style>.cls-1{fill:#2100ad;}.cls-2{fill:url(#Dégradé_sans_nom_41);}</style><linearGradient id="Dégradé_sans_nom_41" x1="0" y1="66.98" x2="293.92" y2="66.98" gradientUnits="userSpaceOnUse"><stop offset="0" stop-color="#f95bff"/><stop offset="1" stop-color="#5bc5ff"/></linearGradient></defs><g id="Calque_1-2"><path class="cls-1" d="m177.02,194.25l-2.28,4.18c-.1.18-.28.29-.48.29h-7.3c-.42,0-.69-.45-.48-.82l18.15-32.99c.21-.38.76-.38.97,0l18.11,32.99c.2.37-.06.82-.48.82h-7.6c-.2,0-.39-.11-.49-.29l-2.2-4.16c-.1-.18-.28-.29-.49-.29h-14.95c-.2,0-.39.11-.48.29Zm11.89-7.75l-3.31-6.25c-.21-.39-.77-.39-.97,0l-3.33,6.25c-.2.37.07.81.49.81h6.64c.42,0,.68-.44.49-.81Z"/><path class="cls-1" d="m32.01,172.59h-11.1c-.3,0-.55.25-.55.55v24.79c0,.3-.25.55-.55.55h-6.56c-.3,0-.55-.25-.55-.55v-24.79c0-.3-.25-.55-.55-.55H1.04c-.3,0-.55-.25-.55-.55v-6.5c0-.3.25-.55.55-.55h30.97c.3,0,.55.25.55.55v6.5c0,.3-.25.55-.55.55Z"/><path class="cls-1" d="m242.42,198.72h-7.1c-.19,0-.37-.1-.47-.26l-5.33-8.68c-.21-.34-.6-.54-1-.52h-9.36c-.6.01-1.09.54-1.09,1.14v7.65c0,.3-.25.55-.55.55h-6.51c-.3,0-.55-.25-.55-.55v-32.5c0-.3.25-.55.55-.55h16.06c2.81,0,5.39.54,7.75,1.63s4.24,2.55,5.63,4.4c1.39,1.85,2.08,3.88,2.08,6.08,0,2.08-.61,4-1.82,5.77-1.11,1.62-2.58,2.97-4.41,4.04-.28.16-.37.52-.19.78l6.77,10.16c.24.37-.02.86-.46.86Zm-14.35-17.14c1.04,0,2-.2,2.87-.61.87-.41,1.56-.95,2.07-1.63.51-.68.76-1.43.76-2.25s-.26-1.53-.76-2.21c-.51-.68-1.2-1.23-2.07-1.63-.87-.41-1.83-.61-2.87-.61h-9.46c-.3,0-.55.25-.55.55v7.84c0,.3.25.55.55.55h9.46Z"/><path class="cls-1" d="m72.77,172.57h-23.82c-.3,0-.55.25-.55.55v4.58c0,.3.25.55.55.55h11.77c.3,0,.55.25.55.55v6.52c0,.3-.25.55-.55.55h-11.77c-.3,0-.55.25-.55.55v4.01c0,.3.25.55.55.55h23.82c.3,0,.55.25.55.55v6.49c0,.3-.25.55-.55.55h-31.57c-.3,0-.55-.25-.55-.55v-32.55c0-.3.25-.55.55-.55h31.57c.3,0,.55.25.55.55v6.53c0,.3-.25.55-.55.55Z"/><path class="cls-1" d="m282.53,172.7h-23.82c-.3,0-.55.25-.55.55v4.58c0,.3.25.55.55.55h11.77c.3,0,.55.25.55.55v6.52c0,.3-.25.55-.55.55h-11.77c-.3,0-.55.25-.55.55v4.01c0,.3.25.55.55.55h23.82c.3,0,.55.25.55.55v6.49c0,.3-.25.55-.55.55h-31.57c-.3,0-.55-.25-.55-.55v-32.55c0-.3.25-.55.55-.55h31.57c.3,0,.55.25.55.55v6.53c0,.3-.25.55-.55.55Z"/><path class="cls-1" d="m113.19,192.8l-.05-.03c-1.07-.76-2.17-1.54-3.23-2.36-2.63-2.02-5.64-4.5-7.95-7.59-1.66-2.21-2.22-4.17-1.77-6.16.48-2.12,1.61-3.34,3.64-3.95,2.06-.6,3.71-.19,5.32,1.33l.56.58c.21.22.57.22.79,0l4.81-4.82c.21-.21.21-.56,0-.78l-.77-.78c-3.69-3.5-8.16-4.6-12.93-3.18-4.74,1.41-7.96,4.89-9.08,9.79-.99,4.34.08,8.64,3.16,12.76,2.89,3.86,6.41,6.78,9.47,9.12h0c.7.53,2.6,1.9,2.6,1.9h14.17l-8.75-5.85Z"/><path class="cls-1" d="m130.74,192.8l.05-.03c1.07-.76,2.17-1.54,3.23-2.36,2.63-2.02,5.64-4.5,7.95-7.59,1.66-2.21,2.22-4.17,1.77-6.16-.48-2.12-1.61-3.34-3.64-3.95-2.06-.6-3.71-.19-5.32,1.33l-.56.58c-.21.22-.57.22-.79,0l-4.81-4.82c-.21-.21-.21-.56,0-.78l.77-.78c3.69-3.5,8.16-4.6,12.93-3.18,4.74,1.41,7.96,4.89,9.08,9.79.99,4.34-.08,8.64-3.16,12.76-2.89,3.86-6.41,6.78-9.47,9.12h0c-.7.53-2.6,1.9-2.6,1.9h-4.05s-10.12,0-10.12,0l8.75-5.85Z"/><rect class="cls-1" x="84.54" y="164.91" width="7.62" height="33.68" rx=".55" ry=".55"/><rect class="cls-1" x="151.69" y="164.91" width="7.62" height="33.68" rx=".55" ry=".55"/><path class="cls-1" d="m290.83,163.85c0-2.6,2.09-4.62,4.8-4.62s4.86,2.02,4.86,4.62-2.13,4.63-4.86,4.63-4.8-2.03-4.8-4.63Zm.81,0c0,2.17,1.76,3.87,3.99,3.87s4.05-1.7,4.05-3.87-1.79-3.9-4.05-3.9-3.99,1.71-3.99,3.9Zm2.28-2.3h1.95c.96,0,1.57.54,1.57,1.4,0,.63-.34,1.1-.88,1.26l1.11,1.9h-.89l-.99-1.77h-1.1v1.77h-.77v-4.55Zm1.93,2.1c.53,0,.8-.28.8-.7s-.27-.71-.8-.71h-1.16v1.41h1.16Z"/><path class="cls-2" d="m30.12,59.17v1.89c0,22.91,0,45.82,0,68.73,0,.42.01.84,0,1.26-.07,1.92-.86,2.7-2.78,2.7-4.12.01-8.24,0-12.36,0-3.75,0-7.49,0-11.24,0-3.42,0-3.73-.32-3.73-3.79C0,88.39,0,46.82,0,5.25c0-.19,0-.37,0-.56C.02,2.44.63,1.81,2.94,1.8c3.65-.02,7.3,0,10.96,0,4.4,0,8.8,0,13.2,0,2.26,0,3.01.75,3.02,3.04.01,7.98,0,15.96,0,23.94,0,5.51,0,11.01,0,16.52v1.67c.82-5.17,2.04-10.21,4.04-15.03C41.13,15.13,53.87,5.17,71.45,1.33c18.22-3.98,33.8,1.35,47.05,14.1.77.74,1.53,1.51,2.24,2.31,1.2,1.35,1.16,2.34-.13,3.63-4.16,4.17-8.34,8.32-12.5,12.48-1.85,1.85-3.7,3.7-5.56,5.54-1.59,1.58-2.52,1.47-4.18.02-2.35-2.05-4.61-4.35-7.31-5.81-11.68-6.33-26.7,1.02-29.48,14.15-1.27,5.98-.28,11.57,2.44,16.93,3.38,6.66,8.28,12.19,13.4,17.52,8.14,8.46,17.2,15.91,26.82,22.61,13.84,9.63,27.9,18.94,41.85,28.41.66.45,1.08.43,1.72,0,10.86-7.27,21.83-14.38,32.6-21.79,12.64-8.69,25.02-17.76,35.64-28.91,4.11-4.31,7.92-8.96,11.43-13.77,3.62-4.94,5.66-10.58,5.46-16.87-.44-13.91-13.58-23.72-26.66-19.86-3.68,1.09-6.72,3.22-9.4,5.9-.43.43-.85.87-1.28,1.3-1.65,1.68-2.59,1.69-4.25.04-5.86-5.84-11.72-11.68-17.57-17.53-1.92-1.91-1.88-2.72-.04-4.65,7.08-7.42,15.36-12.85,25.36-15.56,20.87-5.67,53.9,3.65,62.73,36.54.81,3,1.32,6.08,2.02,9.35,0-.83,0-1.46,0-2.08,0-13.44,0-26.87,0-40.31,0-2.66.63-3.3,3.3-3.3,7.87,0,15.73,0,23.6,0,2.59,0,3.16.57,3.16,3.1,0,41.9,0,83.8,0,125.7,0,2.53-.6,3.14-3.12,3.14-7.77,0-15.54,0-23.32,0-3.07,0-3.61-.53-3.61-3.56,0-23.1,0-46.19,0-69.29,0-.73,0-1.46,0-2.18-1.93,15.66-9.92,28.24-20.03,39.78-10.28,11.74-22.23,21.6-34.76,30.82-1.88,1.38-3.76,2.77-5.69,4.08-.5.34-1.18.42-1.78.61-.08.03-.19,0-.28,0-36.29,0-72.57.02-108.86,0-.72,0-1.56-.27-2.15-.69-12.16-8.59-23.97-17.63-34.27-28.41-4.73-4.95-9.21-10.2-13.33-15.67-6.7-8.89-11.09-18.86-12.6-30.01Z"/></g></svg>